<svg aria-hidden="true" style="position: absolute; width: 0; height: 0; overflow: hidden;" version="1.1" xmlns="http://www.w3.org/2000/svg" xmlns:xlink="http://www.w3.org/1999/xlink">
<defs>
<symbol id="icon-scope" viewBox="0 0 32 32">
<path d="M17 6.5c0-0.276-0.224-0.5-0.5-0.5s-0.5 0.224-0.5 0.5v8.5h-9.5c-0.276 0-0.5 0.224-0.5 0.5s0.224 0.5 0.5 0.5h9.5v9.469c0 0.276 0.224 0.5 0.5 0.5s0.5-0.224 0.5-0.5v-9.469h9.469c0.276 0 0.5-0.224 0.5-0.5s-0.224-0.5-0.5-0.5h-9.469v-8.5zM31.562 15h-2.613c-0.488-6.37-5.579-11.461-11.949-11.949v-2.551c0-0.276-0.224-0.5-0.5-0.5s-0.5 0.224-0.5 0.5v2.5c-6.83 0-12.435 5.299-12.949 12h-2.489c-0.276 0-0.5 0.224-0.5 0.5s0.224 0.5 0.5 0.5h2.438c0 7.168 5.832 13 13 13v2.5c0 0.276 0.224 0.5 0.5 0.5s0.5-0.224 0.5-0.5v-2.551c6.701-0.514 12-6.119 12-12.949h2.562c0.276 0 0.5-0.224 0.5-0.5s-0.223-0.5-0.5-0.5zM16 28c-6.617 0-12-5.383-12-12s5.383-12 12-12 12 5.383 12 12-5.383 12-12 12z"></path>
</symbol>
<symbol id="icon-tram" viewBox="0 0 24 24">
<path d="M17.016 14.016v-5.016h-10.031v5.016h10.031zM12 18.516q0.656 0 1.078-0.445t0.422-1.055-0.422-1.055-1.078-0.445-1.078 0.445-0.422 1.055 0.422 1.055 1.078 0.445zM18.984 16.922q0 1.313-0.68 2.203t-1.898 0.891h0.094l1.5 1.5v0.469h-2.016l-1.969-1.969h-3.797l-1.969 1.969h-2.25v-0.469l1.594-1.594q-1.078-0.234-1.828-1.078t-0.75-1.922v-8.438q0-1.922 1.594-2.648t4.359-0.82l0.797-1.5h-4.781v-1.5h10.031v1.5h-3.281l-0.75 1.5q2.953 0.094 4.477 0.797t1.523 2.672v8.438z"></path>
</symbol>
<symbol id="icon-hair-cross" viewBox="0 0 20 20">
<path d="M10 0.4c-5.303 0-9.601 4.298-9.601 9.6 0 5.303 4.298 9.601 9.601 9.601 5.301 0 9.6-4.298 9.6-9.601s-4.299-9.6-9.6-9.6zM11 17.525v-4.525h-2v4.525c-3.396-0.446-6.080-3.129-6.527-6.525h4.527v-2h-4.527c0.447-3.396 3.131-6.079 6.527-6.525v4.525h2v-4.525c3.394 0.447 6.078 3.13 6.525 6.525h-4.525v2h4.525c-0.447 3.394-3.131 6.078-6.525 6.525z"></path>
</symbol>
<symbol id="icon-search" viewBox="0 0 32 32">
<path d="M31.008 27.231l-7.58-6.447c-0.784-0.705-1.622-1.029-2.299-0.998 1.789-2.096 2.87-4.815 2.87-7.787 0-6.627-5.373-12-12-12s-12 5.373-12 12 5.373 12 12 12c2.972 0 5.691-1.081 7.787-2.87-0.031 0.677 0.293 1.515 0.998 2.299l6.447 7.58c1.104 1.226 2.907 1.33 4.007 0.23s0.997-2.903-0.23-4.007zM12 20c-4.418 0-8-3.582-8-8s3.582-8 8-8 8 3.582 8 8-3.582 8-8 8z"></path>
</symbol>
<symbol id="icon-rocket" viewBox="0 0 32 32">
<path d="M22 2l-10 10h-6l-6 8c0 0 6.357-1.77 10.065-0.94l-10.065 12.94 13.184-10.255c1.839 4.208-1.184 10.255-1.184 10.255l8-6v-6l10-10 2-10-10 2z"></path>
</symbol>
</defs>
</svg>
